/* XPM */
static char *dummy[]={
"50 50 4 1",
"# c #0f0b0d",
"b c #29111f",
"a c #512d2f",
". c #794840",
"...##aaaaa###aaaaa#############aaaaaaa##aaaaa###..",
"...##aaaaa########bbbbbb#bbbbbb#########aaaaa###..",
".aa##########bbb##aaaaaabaaaaaa##bbbbb##########a.",
".aa####bbb###aaabbaaaaaabaaaaaabbaaaaa##bbb#####a.",
".aa####bbb###aaabbaaaaaabaaaaaabbaaaaa##bbb#####a.",
"#####bbaaabbbaaabbaaaaaabaaaaaabbaaaaabbaaabb#####",
".aa##bbaaabbbaaabbaaaaaabaaaaaabbaaaaabbaaabb###a.",
".aa##bbaaabbbaaabbaaaaaabaaaaaabbaaaaabbaaabb###a.",
".aa##bbaaabbbaaabbaaaaaabaaaaaabbaaaaabbaaabb###a.",
".aa##bbaaabbbaaabbaaaaaabaaaaaabbaaaaabbaaabb###a.",
".aa##bbaaabbbaaabbaaaaaabaaaaaabbaaaaabbaaabb###a.",
".aa##bbaaabbbaaabbaaaaaabaaaaaabbaaaaabbaaabb###a.",
".aa##bbaaabbbaaabbaaaaaabaaaaaabbaaaaabbaaabb###a.",
".aa##bbaaabbbaaabbaaaaaabaaaaaabbaaaaabbaaabb###a.",
".aa##bbaaabbbaaabbaaaaaabaaaaaabbaaaaabbaaabb###a.",
".aa##bbaaabbbaaabbaaaaaabaaaaaabbaaaaabbaaabb###a.",
"#####bbaaabbbaaabbaaaaaabaaaaaabbaaaaabbaaabb#####",
".aa##bbaaabbbaaabbaaaaaabaaaaaabbaaaaabbaaabb###a.",
".aa##bbaaabbbaaabbaaaaaabaaaaaabbaaaaabbaaabb###a.",
".aa##bbaaabbbaaabbaaaaaabaaaaaabbaaaaabbaaabb###a.",
".aa##bbaaabbbaaabbaaaaaabaaaaaabbaaaaabbaaabb###a.",
".aa##bbaaabbbaaabbaaaaaabaaaaaabbaaaaabbaaabb###a.",
".aa##bbaaabbbaaabbaaaaaabaaaaaabbaaaaabbaaabb###a.",
".aa##bbaaabbbaaabbaaaaaabaaaaaabbaaaaabbaaabb###a.",
".aa##bbaaabbbaaabbaaaaaabaaaaaabbaaaaa####abb###a.",
".aa##bbaaabbbaaabbaaaaaabaaaaaabbaaa##aaaa#bb###a.",
".aa##bbaaabbbaaabbaaaaaabaaaaaabbaaa##bbbb#bb###a.",
".aa##bbaaabbbaaabbaaaaaabaaaaaabbaaa##bbbb#bb###a.",
"#####bbaaabbbaaabbaaaaaabaaaaaabbaaabb####bbb#####",
"#####bbaaabbbaaabbaaaaaabaaaaaabbaaabb####bbb#####",
".aa##bbaaabbbaaabbaaaaaabaaaaaabbaaaaabbbbabb###a.",
".aa##bbaaabbbaaabbaaaaaabaaaaaabbaaaaabbaaabb###a.",
".aa##bbaaabbbaaabbaaaaaabaaaaaabbaaaaabbaaabb###a.",
".aa##bbaaabbbaaabbaaaaaabaaaaaabbaaaaabbaaabb###a.",
".aa##bbaaabbbaaabbaaaaaabaaaaaabbaaaaabbaaabb###a.",
".aa##bbaaabbbaaabbaaaaaabaaaaaabbaaaaabbaaabb###a.",
".aa##bbaaabbbaaabbaaaaaabaaaaaabbaaaaabbaaabb###a.",
".aa##bbaaabbbaaabbaaaaaabaaaaaabbaaaaabbaaabb###a.",
".aa##bbaaabbbaaabbaaaaaabaaaaaabbaaaaabbaaabb###a.",
".aa##bbaaabbbaaabbaaaaaabaaaaaabbaaaaabbaaabb###a.",
".aa##bbaaabbbaaabbaaaaaabaaaaaabbaaaaabbaaabb###a.",
".aa##bbaaabbbaaabbaaaaaabaaaaaabbaaaaabbaaabb###a.",
"#####bbaaabbbaaabbaaaaaabaaaaaabbaaaaabbaaabb#####",
".aa##bbaaabbbaaabbaaaaaabaaaaaabbaaaaabbaaabb###a.",
".aa##bbaaabbbaaabbaaaaaabaaaaaabbaaaaabbaaabb###a.",
".aa##bbaaabbbaaabbaaaaaabaaaaaabbaaaaabbaaabb###a.",
".aa##bbaaabbbaaabbaaaaaabaaaaaabbaaaaabbaaabb###a.",
".aa##bbaaabbbaaabbaaaaaabaaaaaabbaaaaabbaaabb###a.",
".aa##bbaaabbbaaabbaaaaaabaaaaaabbaaaaabbaaabb###a.",
".aa##bbaaabbbaaabbaaaaaabaaaaaabbaaaaabbaaabb###a."};
