/* XPM */
static char *dummy[]={
"50 50 97 2",
"#r c #4e2913",
"#z c #4f2713",
"#d c #532c14",
"#l c #542e19",
"#h c #57321c",
".d c #59341d",
".a c #5b3721",
".8 c #5d381e",
"#i c #5e3c24",
".n c #613d25",
".i c #613e29",
".U c #624127",
"#D c #634c38",
".t c #64432c",
".l c #654a35",
"#w c #66513d",
"Qt c #674731",
"#o c #674b2f",
"#E c #675341",
".q c #694a2f",
"#v c #695442",
".e c #6a4d31",
".x c #6c4e39",
"#y c #6c5944",
".f c #6e5134",
"#x c #6f5f4d",
"#t c #6f604e",
".b c #705336",
"#s c #72624e",
".Z c #735539",
"#u c #746552",
".g c #75593c",
"#b c #785a3e",
"#p c #7a6a56",
".j c #7c6d5c",
".o c #7d6144",
"#q c #7e705e",
".h c #7f6548",
".z c #806649",
".# c #806f5c",
"#C c #80715f",
"#A c #827564",
".c c #836a4d",
".k c #857767",
"#B c #857866",
"#j c #867867",
"#e c #867a69",
".u c #876e52",
".p c #877053",
"#f c #887a68",
"#c c #887a69",
".v c #897c6b",
".s c #8a7256",
".m c #8a7c6b",
".r c #8c765a",
".Q c #8d785c",
"#m c #8d816f",
".G c #8e785b",
".K c #8e785c",
"#. c #8e8270",
".J c #8f795c",
"#a c #8f816e",
".F c #90795c",
".A c #917a5c",
".I c #917b5e",
".C c #918576",
".P c #927c61",
".y c #938676",
".w c #93887b",
".1 c #947f64",
"#g c #948064",
".W c #948065",
".E c #948778",
"#n c #94897b",
".B c #957f62",
".V c #957f64",
"#k c #958a7a",
".O c #967f63",
".X c #968164",
".2 c #968165",
".6 c #968b7b",
".M c #978b7e",
".7 c #978c7c",
".H c #988267",
".D c #988e81",
".0 c #998468",
".4 c #9a866a",
"## c #9a9183",
".N c #9b9082",
".Y c #9c876c",
".L c #9e9488",
".5 c #9f9488",
".9 c #9f9588",
".S c #a09689",
".3 c #a0968a",
".R c #a1978b",
".T c #a2988c",
"Qt.#.#.#.a.a.a.b.b.b.b.b.b.b.b.b.c.d.d.c.c.b.b.e.f.f.f.b.b.b.f.g.a.a.h.h.h.f.e.e.b.b.b.b.f.i.i.j.k.k",
"Qt.#.#.#.a.a.a.b.b.b.b.b.b.b.b.b.c.d.d.c.c.b.b.e.f.f.f.b.b.b.f.g.a.a.h.h.h.f.e.e.b.b.b.b.f.i.i.j.k.k",
"Qt.#.#.#.a.a.a.b.b.b.b.b.b.b.b.b.c.d.d.c.c.b.b.e.f.f.f.b.b.b.f.g.a.a.h.h.h.f.e.e.b.b.b.b.f.i.i.j.k.k",
".l.m.m.m.n.n.n.o.o.c.c.c.c.c.c.c.p.q.q.r.r.c.c.c.c.c.c.c.c.c.c.s.t.t.u.u.u.c.c.c.c.c.c.c.c.t.t.v.w.w",
".x.y.y.y.i.i.i.z.z.c.c.c.c.c.c.c.A.q.q.B.B.c.c.c.c.c.c.c.c.c.c.A.q.q.s.s.s.c.c.c.c.c.c.c.c.t.t.C.D.D",
".x.y.y.y.i.i.i.z.z.c.c.c.c.c.c.c.A.q.q.B.B.c.c.c.c.c.c.c.c.c.c.A.q.q.s.s.s.c.c.c.c.c.c.c.c.t.t.C.D.D",
".x.E.E.E.i.i.i.z.z.r.F.G.G.G.A.A.H.g.g.I.I.s.s.F.J.J.J.J.J.J.J.A.q.q.r.r.r.r.r.r.K.K.K.K.K.t.t.C.L.L",
".x.E.E.E.i.i.i.z.z.r.F.G.G.G.A.A.H.g.g.I.I.s.s.F.J.J.J.J.J.J.J.A.q.q.r.r.r.r.r.r.K.K.K.K.K.t.t.C.L.L",
".x.E.E.E.i.i.i.z.z.r.F.G.G.G.A.A.H.g.g.I.I.s.s.F.J.J.J.J.J.J.J.A.q.q.r.r.r.r.r.r.K.K.K.K.K.t.t.C.L.L",
".x.M.M.N.i.i.i.c.c.J.J.G.G.G.G.G.H.g.g.O.O.F.F.F.P.P.P.Q.Q.Q.Q.P.l.l.J.J.J.r.K.K.r.G.G.G.G.t.t.M.R.R",
".x.M.M.N.i.i.i.c.c.J.J.G.G.G.G.G.H.g.g.O.O.F.F.F.P.P.P.Q.Q.Q.Q.P.l.l.J.J.J.r.K.K.r.G.G.G.G.t.t.M.R.R",
".f.S.S.T.U.U.U.c.c.V.W.X.X.X.X.X.Y.Z.Z.0.0.V.V.B.V.V.V.V.V.V.1.1.e.e.2.2.2.V.V.V.1.1.1.1.1QtQt.R.R.R",
".x.S.S.3.i.i.i.c.c.B.2.2.2.2.X.X.4.Z.Z.H.H.V.V.2.V.V.V.V.V.V.V.V.e.e.V.V.V.V.V.V.1.2.2.2.WQtQt.5.R.R",
".x.S.S.3.n.n.n.c.c.B.2.2.2.2.X.X.0.Z.Z.0.0.B.B.2.V.V.V.V.V.V.V.0.q.q.0.0.0.V.V.V.V.V.V.V.BQtQt.S.R.R",
".x.S.S.3.n.n.n.c.c.B.2.2.2.2.X.X.0.Z.Z.0.0.B.B.2.V.V.V.V.V.V.V.0.q.q.0.0.0.V.V.V.V.V.V.V.BQtQt.S.R.R",
".x.S.S.3.n.n.n.c.c.B.2.2.2.2.X.X.0.Z.Z.0.0.B.B.2.V.V.V.V.V.V.V.0.q.q.0.0.0.V.V.V.V.V.V.V.BQtQt.S.R.R",
".x.S.S.3.n.n.n.c.c.B.2.2.2.2.X.X.0.Z.Z.0.0.B.B.2.V.V.V.V.V.V.V.0.q.q.0.0.0.V.V.V.V.V.V.V.BQtQt.S.R.R",
".U.6.6.7.8.8.8.o.o.F.A.A.A.A.A.A.X.Z.Z.H.H.A.A.F.F.F.F.F.F.F.F.V.q.q.2.2.2.K.K.K.J.G.G.G.G.q.q.M.9.9",
".i.C.C.C.8.8.8.z.z.A.I.I.I.I.A.A.X.e.e.V.V.A.A.A.K.K.K.F.F.F.K.V.t.t.V.V.V.K.K.K.J.J.J.J.J.i.i#.####",
".i.C.C.C.8.8.8.z.z.A.I.I.I.I.A.A.X.e.e.V.V.A.A.A.K.K.K.F.F.F.K.V.t.t.V.V.V.K.K.K.J.J.J.J.J.i.i#.####",
".n.C.C#a.d.d.d#b#b.c.c.c.c.c.c.c.s.e.e.s.s.c.c.c.c.c.c.c.c.c.c.r.n.n.s.s.s.c.u.u.c.c.c.c.c.t.t.m####",
".n#c#c#c#d#d#d#b#b.c.c.c.c.c.c.c.u.n.n.s.s.c.c.c.c.c.c.c.c.c.c.r.8.8.s.s.s.h.c.c.c.c.c.c.c.i.i#e.E.E",
".n#c#c#c#d#d#d#b#b.c.c.c.c.c.c.c.u.n.n.s.s.c.c.c.c.c.c.c.c.c.c.r.8.8.s.s.s.h.c.c.c.c.c.c.c.i.i#e.E.E",
".n#c#c#c#d#d#d#b#b.c.c.c.c.c.c.c.u.n.n.s.s.c.c.c.c.c.c.c.c.c.c.r.8.8.s.s.s.h.c.c.c.c.c.c.c.i.i#e.E.E",
".n#f#f#g#d#d#d.g.g.u.c.c.c.c.c.c.u.a.a.p.p.o.o.o.o.o.o.o.o.o.o.p#h#h.s.s.s.c.c.c.c.c.c.c.c#i#i#j.C.C",
".n#f#f#g#d#d#d.g.g.u.c.c.c.c.c.c.u.a.a.p.p.o.o.o.o.o.o.o.o.o.o.p#h#h.s.s.s.c.c.c.c.c.c.c.c#i#i#j.C.C",
".8#d#d#d#d#d#d.g.g.g.g.g.g.g.g.g.h#d#d.f.f.a.a#i#h#h#h.a.a.a#h.o#h#h.g.g.g.g.Z.Z.b.b.b.b.x.a.a#d#d#d",
".8#d#d#d#d#d#d.g.g.g.g.g.g.g.g.g.h#d#d.f.f.a.a#i#h#h#h.a.a.a#h.o#h#h.g.g.g.g.Z.Z.b.b.b.b.x.a.a#d#d#d",
".d.6.6#k#d#d#d#d#d#d#l#l#l#l#d#d#d#l#l#d#d#d#d#m#m#m#m#m#m#m#h#d#d#d#d#d#d#d#d#d#d#d#d#d#d#l#l#n#n#n",
".d.6.6#k#d#d#d#d#d#d#l#l#l#l#d#d#d#l#l#d#d#d#d#m#m#m#m#m#m#m#h#d#d#d#d#d#d#d#d#d#d#d#d#d#d#l#l#n#n#n",
".d.6.6#k#d#d#d#d#d#d#l#l#l#l#d#d#d#l#l#d#d#d#d#m#m#m#m#m#m#m#h#d#d#d#d#d#d#d#d#d#d#d#d#d#d#l#l#n#n#n",
".n.#.#.j#d#d#d#o#o.U.U.U.U.U.U.U.U#l#l#i#i#d#d.j#d#d#d#p#p#p#d#i#d#d.f.f.f.U.t.t.t.t.t.t.q#l#l.j#e#e",
".n.j.j#q#d#d#d#o#o.b.g.b.b.b.g.g.g#r#r.e.e#d#d#s#d#d#d#t#t#t#d#i#d#d.g.g.g.b.f.f.f.f.f.f.f#d#d.j.k.k",
".n#u#u#u#d#d#d.U.U.f.f.f.f.f.f.f.g#d#d.e.e#d#d#t#d#d#d#t#t#t#d.U#d#d.g.g.g.e.e.e.e.e.e.e.e#d#d#u#q#q",
".n#u#u#u#d#d#d.U.U.f.f.f.f.f.f.f.g#d#d.e.e#d#d#t#d#d#d#t#t#t#d.U#d#d.g.g.g.e.e.e.e.e.e.e.e#d#d#u#q#q",
".n#u#u#u#d#d#d.U.U.f.f.f.f.f.f.f.g#d#d.e.e#d#d#t#d#d#d#t#t#t#d.U#d#d.g.g.g.e.e.e.e.e.e.e.e#d#d#u#q#q",
".a#u#u#s#d#d#d.U.U.f.f#o#o#o.e.e.g#d#d.e.e#d#d#v#p#p#p#w#w#w#r.U#d#d.g.g.g.f.e.e.f#o#o#o.f#r#r#u.j.j",
".a#u#u#s#d#d#d.U.U.f.f#o#o#o.e.e.g#d#d.e.e#d#d#v#p#p#p#w#w#w#r.U#d#d.g.g.g.f.e.e.f#o#o#o.f#r#r#u.j.j",
".a#u#u#s#d#d#d.U.U.f.f#o#o#o.e.e.g#d#d.e.e#d#d#v#p#p#p#w#w#w#r.U#d#d.g.g.g.f.e.e.f#o#o#o.f#r#r#u.j.j",
"#h#x#x#t#d#d#d.U.U.e.e.f.f.f.e.e.g#d#d#o#o.U.U#d#d#d#d#d#d#d#i.e#d#d.b.b.b#o.f.f#o.f.f.f.f#r#r#t#u#u",
"#d#y#y#y#r#r#r.U.U#o#o#o#o#o#o#o.g#d#dQtQt#o#o.U.U.U.U.U.U.U#o.e#d#d.g.g.g#o#o#o#o#o#o#o#o#r#r#y#t#t",
"#z#y#y#v#r#r#r#i#i.e#o#o#o#o#o#o.g#d#d.e.e.f.f#o.e.e.e#o#o#o.e.e#d#d.g.g.g#o#o#o.l.e.e.e.e#r#r#y#s#s",
"#z#y#y#v#r#r#r#i#i.e#o#o#o#o#o#o.g#d#d.e.e.f.f#o.e.e.e#o#o#o.e.e#d#d.g.g.g#o#o#o.l.e.e.e.e#r#r#y#s#s",
"#z#y#y#v#r#r#r#i#i.e#o#o#o#o#o#o.g#d#d.e.e.f.f#o.e.e.e#o#o#o.e.e#d#d.g.g.g#o#o#o.l.e.e.e.e#r#r#y#s#s",
"#z.a.a#h#h#h#h#i#i#i#i#i#i#i#i#i.g#d#d#i#i#i#i.n#i#i#i#i#i#i#i#i#r#r.g.g.g#i#i#i#i#i#i#i#i#h#h#h#h#h",
"#z.a.a#h#h#h#h#i#i#i#i#i#i#i#i#i.g#d#d#i#i#i#i.n#i#i#i#i#i#i#i#i#r#r.g.g.g#i#i#i#i#i#i#i#i#h#h#h#h#h",
"#z#A#A#A#B#B#B#r#r#r#r#d#d#d#r#r#d#d#d#d#d#d#d#d#d#d#d#d#d#d#d#r#d#d#r#r#r#d#d#d#r#r#r#r#r#A#A#A#j#j",
"#z#A#A#A#B#B#B#r#r#r#r#d#d#d#r#r#d#d#d#d#d#d#d#d#d#d#d#d#d#d#d#r#d#d#r#r#r#d#d#d#r#r#r#r#r#A#A#A#j#j",
"#r#x#x#t#p#p#p#r#r#p#q#q#q#q#q#q#C#j#j.v.v.v.v.v.v.v.v#e#e#e#e#e#B#B#B#B#B#B#q#q#q#p#p#p#r#u#u#t#t#t",
"#z#D#D#D#s#s#s#r#r#w#D#w#w#w#w#w#w#E#E#v#v#E#E#v#y#y#y#y#y#y#v#E#y#y#w#w#w#E#w#w#E#E#E#E#r#u#u#D#D#D"};
