/* XPM */
static char *dummy[]={
"50 50 31 1",
"o c #605c48",
"p c #64604b",
"q c #656c17",
"r c #66624d",
"z c #686f16",
"x c #6c6852",
"# c #72751b",
"s c #787b21",
"a c #7c7b6e",
"h c #7e7d71",
"w c #7f8124",
"y c #7f8226",
". c #807f72",
"b c #828077",
"k c #838178",
"C c #838279",
"f c #848279",
"d c #86847b",
"j c #87857c",
"e c #878679",
"A c #87867d",
"g c #88867d",
"c c #88867e",
"l c #8a8a7d",
"i c #8c8a80",
"n c #8d8b83",
"m c #8d8c82",
"u c #8e8c83",
"v c #8e8c84",
"B c #8e8d84",
"t c #939189",
"......##aaaaa##b....##aaaaa#########cdeeee#......#",
"......#faaaaa#db....gfaaaaaf########.ceeee#......#",
"......#faaaaa##h....gfaaaaaf########ijdeee#......#",
"......#faaaaa#gb....gfaaaaaf########jjdeee#......#",
"bbab..#faaaaa#db..b.dfaaaaad########kdccee#......#",
"lmmmnn#oglggl#pmmlmlqrsggnl#########tttttt#nnnleu#",
"######################################s###########",
"eeeedd#d...bh#d.b...dmeedfem########.h....#aaaaaa#",
"eeeeee#e.....#e.....gveeeeev########hh..k.#aaaaaa#",
"eeeeee#l.....#e.....gmeeeeem########.h..ha#aaaaaa#",
"eeeeee#e.....#db....gveeeeem########....bb#aaaaaa#",
"eeeeee#e....b#db....lveweeem########....ba#aaaaha#",
"rxxxpr##ppppp##prror##xsxxx#########ppprpp#qqoooo#",
"bb...b#d.....#lefeeelg.....g########hhhs###bkhh..#",
"......#e....g#veeeeeng.....e########h.h.hh#hk.hd.q",
"......#e.....#vdeeeemg....bg#######s..hhhhshh....#",
"....hfs..aaf.#xeeeeevl.....i########eb....s.f.h.b#",
"......#i.f.f.##ueeeelj....l#########bb....s..f..b#",
"rrqsyq##rroor#zzxxxx##orros########wqoooro#oorrop#",
"...qq####haaa##...b###k..#h#######zz.h.hhh#jeeeee#",
".....k#fhaaaa#g.....ee#nr.hj########aaaaha#eeeeee#",
"....hf#saaaaa#g.....gs##..hi########aaaaaa#eeeeee#",
".....fs.aaaaa#eb....g#k...hA########aaaaaa#eeeeee#",
"......#.aaaaa#eb....mg.....i########aaaaaa#feex#z#",
"nnnnnnsollgno#oBnnoosonnvvvo########eleeeewltl#z##",
"......##eeeee##..ff.###hahh#########bbbaaa#aea####",
".....h#neeeee#gk....g#shaaa.#sy#####babbbb#bbbb###",
"......#neeeee#osg...gssaaaa.##q#####bbbaab#babba.#",
"......#neeeee####n..f..aaaaf########bbbbbb#babbb.#",
"ff....#neleee#..##djn.hhaaaf#####zw#aabebawabbab.#",
"#rnnnn#xttqtt#rnl#onn#Anggv######wz#elllw#zemmmll#",
"##################################w####zzqww######",
"haaiaa#i.....###....eebbaabe########......#aaaaaa#",
"haa#ic#......#c.....eeabbbbe########.h....#aaaaaa#",
"aaaa###c.....#c.....ggbbhhbe########vvhh..saaaaaa#",
"aaaaaa#c.....#c....bggbahtq#########.hrh..#aaaaaa#",
"aahaah##n....#c.bbabdd..t###########hhh#ra##aaaaa#",
"oooooo###pppr##propp#sor############orp##r###oooo#",
"#d..h.#c....a#ndeeeeng..hh.i########haaaaa#eedjje#",
"hh....#cfh...#nieeeevg..hh.n########haaaaa#eeddfe#",
"hkd...#g.h.kk#ndeeeevg.....j########aaaaaa#eeeeee#",
"..hhi.##pii..#ideeeevrv....j########aaaae##eeeeee#",
"kh..as#####p.#jjgesy###o...i########aaoo###eedeee#",
"rqoo######ssr##rx##q#####ro#########o##llo#opppro#",
"nddd######q#s#########aah##############w###.b....#",
"cfi.y#z############ys#si##h.##########zw###.bb...#",
".ijx#z###############s###aaj###############..b...#",
"i.isz#zz###############aaah.##w############ppl..b#",
"jx#########sy##########naaaf###s##############rBCq",
"########################ngjo####################r#"};
