/* XPM */
static char *_86efaf52ab44360cdc1f30c5973249eePMK1oyqpBywsHpC[] = {
/* columns rows colors chars-per-pixel */
"50 50 39 1 ",
"  c black",
". c #750000",
"X c #656C17",
"o c #686F16",
"O c #72751B",
"+ c #787B21",
"@ c #555555",
"# c #605C48",
"$ c #64604B",
"% c #66624D",
"& c #6C6852",
"* c #7C7B6E",
"= c #7E7D71",
"- c gray50",
"; c #DE0000",
": c red",
"> c #807F72",
", c #7F8124",
"< c #7F8226",
"1 c #828077",
"2 c #838178",
"3 c #838279",
"4 c #848279",
"5 c #878679",
"6 c #86847B",
"7 c #87857C",
"8 c #88867D",
"9 c #88867E",
"0 c #8A8A7D",
"q c #8C8A80",
"w c #8D8B83",
"e c #8D8C82",
"r c #8E8C84",
"t c #8E8D84",
"y c #939189",
"u c gray65",
"i c #B7B7B7",
"p c #C8C8C8",
"a c gray94",
/* pixels */
">>>>>>OO*****OO11>>>OO*****OOOOOOOOOq>5555O>>>>>>O",
">>>>>>O4*****O61>>>>q4*****4OOOOOOOO=q5455O>>>>>>O",
">>>>>>O4*****OO*>>>>73*****4OOOOOOOOw>q955O>>>>>>O",
">>>>>>O4*****O51>>>>0       OOOOOOOO6q-655O>>>>>>O",
"11*1>>O4*****O61>>115       OOOOOOOO>67q55O>>>>>>O",
"0eeewwO#60060O$00000X  ;;;.. OOOOOOOyyyyyyOwee05wO",
"OOOOOOOOOOOOOOOOOOOOO  ;;;;;.  OOOOO+O+OOOOOOOOOOO",
"556666O6>111*O5>111>6  ;;;;;.  OOOOO==>>>>O*****=O",
"555555O5**111O5>>>>>w  ;;;;;;..   OO>=>>>>O******O",
"555555O0111*=O5>>>>>6  ;;;;;;;;...  3=>>>*O******O",
"555555O5111*1O61>>>>0  ;;;;;;;;...  =>>>>-O******O",
"555555O5**111O61>>>=0     .......... >>>>>O****=*O",
"%&&&$$OOX$%#%OO$%%#%O     .......... %%%%%OXo####O",
"11>>11O5=3>>>O064755w           .....  +OOO>>>=>>O",
"1>>>>>O5>>>>7Oe755   ppaapuuu->   ...  >>>O>>>*5>X",
"1>>>>>O5>>>>1Ot755   ppaapuuu--   ...  >=>O>>>>>>O",
"*11111O11**41O&55 pppppuuuw-----@@  ... 4>+>41*>>O",
"11*1*5O01116*OO  p          ------@@ ...  +>151>4O",
"$$oO,oOO$$##%Oo  p          ------@@ ...  O##%###O",
"11*XoOOOO****OO   aaappppu   @@@@@@@@  .  O955959O",
"11*111O51****O pppuu uuuuu---   @@@@@@@   O555555O",
"*1*1*5OO*****O pppuu uuuuu---   @@@@@@@   O055555O",
"1*1111O>*****O uu uu uu  uuu---@  @@@@@ **O555505O",
"111*11O1*****O uu uu uu  u  u--@  @@@@@ **O455%OoO",
"50yeet,#009e#O uu uu uu  u  u--@  @@@@@ 9>+qy9OXOO",
"5      O55555O uu uu uu  u  u--@  @@@@@ **+*0=OOOO",
"1      t55555O uu uu uu  u  u--@  @@@@@ >>+>>>-+OO",
"*  iuuu  5555O uu uu uu  u  u--@  @@@@@ >>+>>>>>4O",
"1  aiiuuu  56O uu uu uu  u  u--@  @@@@@ >>+>=>>>>O",
"3  aiiuuu  56O uu uu uu  u  u--@  @@@@@ ->,=>4=>>O",
"O  aaaiuuuu yO uu uu uu  ------@  @@@@@ ,+X>ee000O",
"OOO aaaiiuuu   @@@@@@@@@@@@@@@@ @@@@@@@ XX<<OOOOOO",
"1** aaaiiuuu   @@@@@@@@@@@@@@@@ @@@@@@@ >>O******O",
">**O  aaaiiuuu                          >>O******O",
"****OO aaaaiuuu  ...;;;;;;;;.  ;;;;;....  +******O",
"****** aaaaiuuu  ...;;;;;;;;.  ;;;;;....  O******O",
"******O  aaaiiuuu   .........  ;;;;;;...  OO*****O",
"######O  aaaiiuuu   .........  ;;;;;;...  OOO####O",
"O611>1O01  aaaiuuu::      ..   ;;;;;;...  O566775O",
"==*11*O53=1 aaaii:..aaa--@  -  .;;;;;...  O666745O",
"*1611*O91*1 aaaii:..aaa--@  -  .;;;;;...  O555555O",
"11**03OO$001  a::.aa-----@  -@@ ..;;... 0OO555555O",
"1*11*OOOOOO$  :.. --pppppp  pppp  ...  #OOO566554O",
"%o#$OOOOOO++  :.. --pppppp  pppp  ...  q0#O#$$$$#O",
"0666OOOOOOXO+O   O  -@@@@@@@>@@@@@   OO,OO+=1111>O",
"0401,OoOOOOOOOOOOOO< @@@@    @@@@@  OOX,OOO=111*>O",
"1e6&OoOOOOOOOOOOOOOO @@@@    @@@@@  OOOOOOO-111*>O",
"020OoOooOOOOOOOOOOOO @@  *->O  @  OOOOOOOOO%X5113O",
"0&OOOOOOOOOO<OOOOOOOO    **4OOO   OOOOOOOOOOOO%t3X",
"OOOOOOOOOOOOOOOOOOOOO    00#OOO   OOOOOOOOOOOOOO%O"
};
