/* XPM */
static char *a4eaa02d022a48c9e8811b5c367e708bXz2aUMBiI9vxOHXU[] = {
/* columns rows colors chars-per-pixel */
"50 50 37 1 ",
"  c black",
". c #750000",
"X c #656C17",
"o c #686F16",
"O c #72751B",
"+ c #787B21",
"@ c #555555",
"# c #605C48",
"$ c #64604B",
"% c #66624D",
"& c #6C6852",
"* c #7C7B6E",
"= c #7E7D71",
"- c gray50",
"; c #DE0000",
": c #807F72",
"> c #7F8124",
", c #7F8226",
"< c #828077",
"1 c #838178",
"2 c #838279",
"3 c #848279",
"4 c #878679",
"5 c #86847B",
"6 c #87857C",
"7 c #88867D",
"8 c #88867E",
"9 c #8A8A7D",
"0 c #8C8A80",
"q c #8D8B83",
"w c #8D8C82",
"e c #8E8C84",
"r c #8E8D84",
"t c #939189",
"y c gray65",
"u c #C8C8C8",
"i c gray94",
/* pixels */
"::::::OO*****OO<<:::OO*****OOOOOOOOO834444O<:::::O",
"::::::O3*****O5<::::03*****3OOOOOOOO<84444O::::::O",
"::::::O3*****OO*::::62*****3OOOOOOOO983444O::::::O",
"::::::O3*****O4<::::9      3OOOOOOOO485544O::::::O",
"<<*<::O3*****O5<::<<4      6OOOOOOOO259944O<<:3::O",
"9wwwqqO#59959O$99999X  ;;;.  OOOOOOOttttttO999949O",
"OOOOOOOOOOOOOOOOOOOOO  ;;;;..  OOOOOOOOOOOOOOOOOOO",
"445555O5:<<<*O4:<<<:5  ;;;;..  OOOOO:=::::O******O",
"444444O4**<<<O4:::::q  ;;;;;;..   OO<*::<<O******O",
"444444O9<<<*=O4:::::5  ;;;;;;;;... O<:::**O******O",
"444444O4<<<*<O5<::::9  ;;;;;;;;... O::::<<O******O",
"444444O4**<<<O5<:::=9     .........  <::<*O******O",
"%&&&$$OOX$%#%OO$%%#%O     .........  $%%$$OoX####O",
"<<::<<O4=2:::O953644q           .....  OOOO<<**<<O",
"<:::::O4::::6Ow644   uuiuuyyy-:   ...  <<*O*<<*4<o",
"<:::::O4::::<Or644   uuiuuyyy--   ...  <*<O<*<<::O",
"*<<<<<O<<**3<O&4  uuuuuyyy------@@ .... <:+:<<*:<O",
"<<*<*4O9<<<5*OO uu         -------@  ...  +:<4<:<O",
"$$oO>oOO$$##%Oo uu         q------@  ...  O##%$#$O",
"<<*XoOOOO****OO   iiiuuuyy   @@@@@@@@  .  O544444O",
"<<*<<<O4<****  uuuy  yyyyy---   @@@@@@@   O544444O",
"*<*<*4OO*****  uuuy  yyyyy---   @@@@@@@   O944444O",
"<*<<<<O:*****  y  y  yy yyy----@  @@@@@ **O544494O",
"<<<*<<O<*****  y  y  yy yy yy--@  @@@@@ **O344%OoO",
"49wwrw>#998w#  y  y  yy yy yy--@  @@@@@ 44>9t9OoOO",
"<4><<:OO44444  y  y  yy yy yy--@  @@@@@ **O*4*OOOO",
"**<<::O944444  y  y  yy yy yy--@  @@@@@ <<O<<<<OOO",
"<<<*:<O944444  y  y  yy yy yy--@  @@@@@ *<O<*<<*<O",
":::<::O944445  y  y  yy yy yy--@  @@@@@ <<O<*<<<<O",
"1<:<::Ow49445  y  y  yy yy yy--@  @@@@@ <*>*<9*<:O",
"O%wwwwO&ttXtt  y  y  yy -------@  @@@@@ >Oo4w9994O",
"OOOOOOOOOOOOO  @@@@@@@@@@@@@@@@ @@@@@@@ oX>>OOOOOO",
":**9=*Ow=<:::  @@@@@@@@@@@@@@@@ @@@@@@@ ::O******O",
":**O95O=<=:::O8                         ::O******O",
"****OOO7::::<O8 ...;;;;;;;;..  ;;;;.....  +=*****O",
"*****:O9::::*O8 ...;;;;;;;;..  ;;;;.....  O=*****O",
"**<***OO9<<<<O9*   ..........  ;;;;;;...  OO*****O",
"######OOO$$$%OO$   ..........  ;;;;;;...  OOO####O",
"O2:               ;       .    ;;;;;;...  O565604O",
":* yyyyyyyyyyyyyyy;..  --- --  .;;;;;...  O5652:4O",
"=2 yyyyyyyyyyyyyyy;..  --- --  .;;;;;...  O444444O",
"  uuuuuuuuuuuuuuuu;..  --- --@@ ..;.... 5OO444444O",
"2= iiiiiiiiiiiiiii;..  uuu uuuuu  ...  #OOO945445O",
"%X iiiiiiiiiiiiiii;..  uuu uuuuu  ...  99#O#$$$$#O",
"q55               ;  --@@@@-:@@@@@   OO>OOO:<<::<O",
"83q<,OoOOOOOOOOOOO   @@@     @@@@@ OOOo,OOO:<<::*O",
"<w5&OoOOOOOOOOOOOO   @@@     @@@@@ OOOOOOOO::<::<O",
"9<9OoOooOOOOOOOOOOO  @@ ===:O  @  OOOOOOOOO$$9::<O",
"9&OOOOOOOOOO,OOOOOOOO   ***3OOO   OOOOOOOOOOOO%r3X",
"OOOOOOOOOOOOOOOOOOOOO   r94#OOO   OOOOOOOOOOOOOO%O"
};
