/* XPM */
static char *dummy[]={
"50 50 3 1",
"# c #0f0b0d",
"a c #512d2f",
". c #794840",
"..............##.................##...............",
"...aaaaaaaaaaa##aaaaaaaaaaaaaaaaa##aaaaaaaaaaaa...",
"...aaaaaaaaaaa##aaaaaaaaaaaaaaaaa##aaaaaaaaaaaa...",
"..aaaaaaaaaaaa##aaaaaaaaaaaaaaaaa##aaaaaaaaaaaaaa.",
"..a############################################aa.",
"##################################################",
"..a############################################aa.",
"..a############################################aa.",
"..a############################################aa.",
"..a############################################aa.",
"..a############################################aa.",
"..a############################################aa.",
"..a############################################aa.",
"..a############################################aa.",
"..a############################################aa.",
"..a############################################aa.",
"..a############################################aa.",
"##################################################",
"..a############################################aa.",
"..a############################################aa.",
"..a############################################aa.",
"..a############################################aa.",
"..a############################################aa.",
"..a############################################aa.",
"..a############################################aa.",
"..a############################################aa.",
"..a############################################aa.",
"..a############################################aa.",
"##################################################",
"..a############################################aa.",
"..a############################################aa.",
"..a############################################aa.",
"..a############################################aa.",
"..a############################################aa.",
"..a############################################aa.",
"..a############################################aa.",
"..a############################################aa.",
"..a############################################aa.",
"..a############################################aa.",
"..a############################################aa.",
"..a############################################aa.",
"..a############################################aa.",
"##################################################",
"##################################################",
"..a############################################aa.",
"..a############################################aa.",
"..a############################################aa.",
"..a############################################aa.",
"..a############################################aa.",
"..a############################################aa."};
