/* XPM */
static char *dummy[]={
"50 50 37 1",
"G c #000000",
"z c #0095e9",
"F c #124e89",
"C c #2ce8f5",
"q c #605c48",
"r c #64604b",
"s c #656c17",
"t c #66624d",
"D c #686f16",
"A c #6c6852",
"# c #72751b",
"u c #787b21",
"a c #7c7b6e",
"h c #7e7d71",
"E c #7f8124",
"B c #7f8226",
". c #807f72",
"b c #828077",
"m c #838178",
"I c #838279",
"f c #848279",
"d c #86847b",
"j c #87857c",
"e c #878679",
"g c #88867d",
"c c #88867e",
"n c #8a8a7d",
"k c #8b9bb4",
"i c #8c8a80",
"p c #8d8b83",
"o c #8d8c82",
"w c #8e8c83",
"x c #8e8c84",
"H c #8e8d84",
"v c #939189",
"y c #f77622",
"l c #ffffff",
"......##aaaaa##b....##aaaaa#########cdeeee#......#",
"......#faaaaa#db....gfaaaaaf########.ceeee#......#",
"......#faaaaa##h....gfaaaaaf########ijdeee#......#",
"......#faaaaa#gb....gfaaaaaf########jjdeee#......#",
"bbab..#faaaaa#db..b.dfaaakll########mdccee#......#",
"nooopp#qgnggn#roononstukkklll#######vvvvvv#pppnew#",
"#######################kkklll#########u###########",
"eeeedd#d...bh#d.b...doekkklll#######.h....#aaaaaa#",
"eeeeee#e.....#e.....gxekkklll#######hh..m.#aaaaaa#",
"eeeeee#n.....#e.....goekkklll#######.h..ha#aaaaaa#",
"eeeeee#e.....#db....gxeyyyyyy#######....bb#aaaaaa#",
"eeeeee#ell..b#db....zzzzzzzzlzzz####....ba#aaaaha#",
"tAAArt##llrrr##rttqtzzzzzzzzlzzz####rrrtrr#ssqqqq#",
"bb...b#klll..#nefeezzzzzzzzzzlllzz##hhhu###bmhh..#",
"......#klll.g#xeezzzzzzzzzzzzlllzzz#h.h.hh#hm.hd.s",
"......#klll..#xdezzzzzzzzzzzzlllzzzu..hhhhuhh....#",
"....hkkklllll#Aezzzzzzzzzzzzzzzzzzzzzb....u.f.h.b#",
".....kkklllll#zzzzzzzzzzzzzzzzzzzzzzzz....u..f..b#",
"ttsuBkkklllll#zzzzzzzzzzzzzzzzzzzzzzzzqqtq#qqttqr#",
"...sskkklllll#zzzzzzzzzzzzzzzzzzzzzzzz.hhh#jeeeee#",
"....kkkkllllllzzzzzzzzzzzzzzzzzzzzzzzzaaha#eeeeee#",
"....kkkkllllllzzzzzzzzzzzzzzzzzzzzzzzzaaaa#eeeeee#",
"....kkkkllllllzzzzzlCCzzzzzzzllCzzzzzzllaa#eeeeee#",
"....kkkkllllllzzzzzCCCzzzzzzzCCCzzzzzzCCaa#feeA#D#",
"ppppkkkkllllllzzzzzCCCzzzzzzzCCCzzzzzzCCeeEnvn#D##",
"....kkkkllllllzzzzzzzzzzzzzzzzzzzzzzzzzzaa#aea####",
"....kkkkllllllzzzzzzzzzzzzzzzzzzzzzzzzzzbb#bbbb###",
"....kkkkllllllzzzzzzzzzzzzzzzzzzzzzzzzzzab#babba.#",
"....kkkkllllllFFFFFFFFFFFFGGGGGGGGFFFFFFbb#babbb.#",
"ff..kkkkllllllzzzzzzzzGGGGGGGGGGGGGGGGFFbaEabbab.#",
"#tppkkkkllllllzzzzzzzzGGGGGGGGGGGGGGGGFFE#Deooonn#",
"####kkkkllllllzzzzzzGGllllllGGGGGGGllllllsEE######",
"haaikkkkllllllzzzzzGlllllllllGGGGGlllllllllaaaaaa#",
"haa#kkkkllllllzzzzzGlllllllllGGGGGlllllllllaaaaaa#",
"aaaakkkkllllllzzzzzlllllllGGGllGllGGGlllllllaaaaa#",
"aaaaakkklllllzzzzzzlllllllGGGllGllGGGlllllllaaaaa#",
"aahaakkklllllzzzzzzlllllllGGGllGllGGGlllllllaaaaa#",
"qqqqyyyyyyyyyyFFFFFlllllllFFFllGllFFFlllllll#qqqq#",
"#d..h.#llllzzzzzzzzllllllllllllGlllllllllllledjje#",
"hh....#llllzzzzzzzzllllllllllllGlllllllllllleddfe#",
"hmd..llllllllzzzzzzGlllllllllGGGGGllllllllleeeeee#",
"..hhillllllllzzzzzzzGGGGGGGGGGGGGGGGGGFFz##eeeeee#",
"mh..allllllllzzzzzzzGGGGGGGGGGGGGGGGGGFFz##eedeee#",
"tsqq#llllllllzzzzzzzzzzGGGGGGGGGGGGGGFzzFGGqrrrtq#",
"pddd###llllzzzzzzzzzzzzzzzGGGGGGGGGFFzzzGGG.b....#",
"cfi.B#DllllzzzzzzzzzzzzzzzGGGGGGGGGFFzzzGGG.bb...#",
".ijA#D#yyyy###GGGGGF#u###aaj##########GGGGG..b...#",
"i.iuD#Dyyyy###GGGFF####aaah.##E#######GGG##rrn..b#",
"jA#####yyyyuB#GGGFF####paaaf###u######GGG#####tHIs",
"########################pgjq####################t#"};
