/* XPM */
static char *eb1d1472fbf4466eb75815cdd796d43avC64dKJnHpKljz1S[] = {
/* columns rows colors chars-per-pixel */
"50 50 34 1 ",
"  c black",
". c #656C17",
"X c #686F16",
"o c #72751B",
"O c #787B21",
"+ c #605C48",
"@ c #64604B",
"# c #66624D",
"$ c #6C6852",
"% c #7C7B6E",
"& c #7E7D71",
"* c #F77622",
"= c #807F72",
"- c #7F8226",
"; c #828077",
": c #838178",
"> c #838279",
", c #848279",
"< c #878679",
"1 c #86847B",
"2 c #87857C",
"3 c #88867D",
"4 c #8A8A7D",
"5 c #124E89",
"6 c #0095E9",
"7 c #2CE8F5",
"8 c #8D8B83",
"9 c #8D8C82",
"0 c #8E8C83",
"q c #8E8C84",
"w c #8E8D84",
"e c #939189",
"r c #8B9BB4",
"t c white",
/* pixels */
"======oo%%%%%oo====&oo=%%%&ooooooooo<<<<<<o======o",
"======o,%%%%%o1>1&>=3=&&%%&=oooooooo;<<<<<o======o",
"======o,%%%%%oo&&>&=<=%%%%%2oooooooo43,<<<o======o",
"======o,%%%%%o4===&>2=%%%%%=oooooooo<<<<<<o======o",
";;%;==o,%%%%%o<;>%==ttr%&==<oooooooo<<44<<o======o",
"499988o+44<<4o@481,tttrrr4<oooooooooeee4eeoq884<8o",
"oooooooooooooooooOotttrrrooooooooooooooooooooooooo",
"<<1111o1%;;>%o<;===tttrrr=<3oooooooo%;;;==o%%%%%%o",
"<<<<<<o<%%;;;o<%===tttrrr3<qoooooooo;=;%;;o%%%%%%o",
"<<<<<<o4;;;%%o<;===tttrrr<<qoooooooo;%;%%%o%%%%%%o",
"<<<<<<o<;;;%;o1;===******<<4oooooooo;;%;;;o%%%%%%o",
"<<<<<<o<%%;;;o1;666t66666666oooooooo%;tt;%o%%%%%%o",
"#$$$@@oo.@@@@oo@666t66666666oooooooo@@tt@@o.X++++o",
";;==;;o<1%===o66ttt6666666666ooooooo%tttroo;<%%%=o",
";=====o<%=;=1666ttt666666666666ooooo%tttr%o;;;%<=.",
";=====o<1%==;666ttt666666666666ooooo=tttr;o%%;;%=o",
"====&,O==%%666666666666666666666oootttttrrr=;;%;;o",
"======o4=,666666666666666666666666otttttrrr=;1;;;o",
"##.O-.oo##666666666666666666666666otttttrrr++@@+@o",
"===..oooo&666666666666666666666666Xtttttrrr1<<<<<o",
"=====>o,&%666666666666666666666666ttttttrrrr<<<<<o",
"====&,oO%%666666666666666666666666ttttttrrrr<<<<<o",
"=====,O=tt6666667tt666666677t66666ttttttrrrr<<<<<o",
"======o=77666666777666666677766666ttttttrrrr<<$oXo",
"qq8888O+77666666777666666677766666ttttttrrrre4oXoo",
"======oo66666666666666666666666666ttttttrrrr4%oooo",
"=====&o866666666666666666666666666ttttttrrrr=;;ooo",
"======o866666666666666666666666666ttttttrrrr%;;%;o",
"======o8555555        555555555555ttttttrrrr%;;;;o",
",,====o855                66666666ttttttrrrr;<%;=o",
"o#8888o$55                66666666ttttttrrrr4w44<o",
"oooooootttttt       tttttt  666666ttttttrrrroooooo",
"&%%8%ttttttttt     ttttttttt 66666ttttttrrrr%%%%%o",
"&%%o8ttttttttt     ttttttttt 66666ttttttrrrr%%%%%o",
"%%%%ttttttt   tt tt   ttttttt66666ttttttrrrr%%%%%o",
"%%%%ttttttt   tt tt   ttttttt666666tttttrrr%%%%%%o",
"%%=%ttttttt   tt tt   ttttttt666666tttttrrro%%%%%o",
"++++ttttttt555tt tt555ttttttt55555**********o++++o",
"o,==tttttttttttt tttttttttttt66666666tttt%o<1122<o",
"%&==tttttttttttt tttttttttttt66666666tttt%o<111,<o",
"%;1;=ttttttttt     ttttttttt 666666tttttttt<<<<<<o",
";;%%8=o655                  6666666tttttttt1<<<<<o",
"<%;;%oo655                  6666666tttttttt1<1<<1o",
"@.++o  5665              6666666666tttttttt+@@@@+o",
"9111o   66655         666666666666666ttttoX;;;;%;o",
"4;4;-   66655         666666666666666ttttoo;;;;;%o",
";4<$o     oooooooooooOooo%%25     ooo****oo;;;%;;o",
"4;4OXoX   ooooooooooooo%%%&=o55   ooo****oo@@<%;;o",
"<$ooooo   oO-ooooooooooq%%%,o55   ooo****ooooo#q>.",
"oooooooooooooooooooooooo933+oooooooooooooooooooo#o"
};
