/* XPM */
static char *dummy[]={
"50 50 67 2",
".y c #4f2913",
".F c #4f311e",
".H c #4f3625",
".Y c #512d19",
".D c #522f1b",
".t c #53321e",
".X c #533220",
".3 c #543422",
".Z c #543523",
".J c #543624",
".K c #553726",
".P c #553827",
"#. c #56321c",
".O c #563b2a",
".Q c #573c2d",
".8 c #573d2e",
".s c #583e2e",
".1 c #583f30",
".I c #584132",
".q c #593d2a",
".7 c #5a4537",
".4 c #5a4538",
".j c #5b4231",
".0 c #5b4435",
".2 c #5b4538",
".9 c #5b483b",
".V c #5c4b3e",
".M c #5c4d41",
".A c #5c5247",
".W c #5d4c41",
".C c #5d5247",
".B c #5d5248",
".# c #5e4532",
".L c #5e4f44",
".5 c #615851",
".b c #624937",
".E c #625449",
".N c #62554b",
".6 c #63574d",
".G c #655444",
".f c #665444",
".v c #665f58",
".u c #666057",
".x c #675f56",
".r c #676159",
".z c #68625a",
".n c #68635a",
".p c #69635b",
".w c #6a645c",
".k c #6b655d",
".l c #6b675d",
".i c #6c675f",
".m c #6d685f",
".o c #6d6861",
".h c #6d695f",
".T c #736e66",
".U c #746f67",
".S c #76726b",
".R c #76726c",
"## c #767469",
"#a c #86847b",
"Qt c #868579",
".a c #88877b",
".c c #918f88",
".g c #929088",
".d c #94928b",
".e c #99978f",
"QtQtQtQtQtQtQtQtQtQtQt.#QtQtQtQtQtQtQtQtQtQtQtQtQtQtQtQtQtQtQtQtQtQtQt.aQt.bQtQtQtQtQtQtQtQtQtQtQtQt",
"QtQtQtQtQtQtQtQtQt.aQt.bQtQtQtQtQtQtQtQtQtQtQtQtQtQtQtQtQtQtQtQtQtQtQtQtQt.bQtQtQtQtQtQtQtQtQtQtQtQt",
".c.c.c.c.c.c.c.c.d.e.e.f.d.e.e.d.d.d.d.d.d.d.d.d.g.g.g.g.g.g.g.g.g.g.d.e.e.f.d.e.e.d.d.d.d.d.d.d.d.d",
".h.h.i.h.i.h.h.h.h.h.h.j.h.h.i.h.i.h.i.i.h.k.h.l.h.h.i.i.i.i.i.i.i.h.i.h.k.j.i.h.l.i.h.i.m.l.m.l.m.l",
".h.i.h.i.h.i.h.i.h.h.h.j.h.h.i.h.h.i.h.i.k.h.l.l.m.m.m.i.i.i.h.i.i.i.h.i.i.j.i.h.l.h.i.m.k.m.l.l.m.l",
".i.h.i.i.i.h.i.h.h.l.n.j.h.k.h.o.i.h.l.l.h.n.l.l.m.m.m.h.i.h.i.h.h.l.k.h.i.j.h.i.h.l.h.l.m.l.l.l.l.m",
".i.i.i.l.l.i.i.l.k.h.i.j.n.h.l.p.k.l.l.k.h.i.l.k.k.m.l.h.h.l.k.h.h.k.l.l.k.j.i.i.l.l.l.k.l.l.k.k.l.k",
".k.i.l.l.l.l.l.l.k.h.n.j.o.n.o.p.l.k.k.k.i.n.k.l.l.k.l.k.l.l.l.k.l.l.l.l.l.j.n.h.l.l.k.k.k.k.k.l.k.l",
".k.k.k.n.k.p.k.n.p.k.i.q.p.p.l.p.p.p.p.r.n.n.l.p.k.k.k.l.n.n.k.l.p.p.l.o.p.s.i.n.p.n.p.r.p.r.n.n.k.k",
".k.k.k.k.p.k.i.l.i.n.i.t.l.r.l.r.l.n.l.l.l.l.l.n.k.k.n.i.l.k.l.n.n.n.p.p.k.t.n.n.p.l.p.l.p.l.l.l.n.k",
".n.u.n.n.p.p.n.n.n.n.u.t.n.l.l.r.n.n.l.r.v.n.l.r.n.u.k.u.w.n.n.n.l.l.l.n.k.t.n.k.p.p.l.v.n.n.r.r.n.n",
".n.n.u.n.v.n.n.r.i.n.n.t.r.r.v.r.p.v.v.v.l.n.r.r.u.n.u.k.n.n.n.n.r.r.r.r.n.t.n.v.n.n.n.n.n.n.l.r.n.n",
".n.u.n.u.n.n.r.r.n.x.r.t.r.r.r.r.v.n.v.n.r.r.r.r.r.r.r.r.x.n.x.n.r.r.r.r.r.t.r.r.v.n.v.n.r.r.r.r.u.n",
".x.k.u.u.n.x.r.v.v.n.r.y.r.r.r.r.n.v.n.v.r.r.r.r.r.r.r.v.n.x.v.v.r.r.r.r.r.y.r.v.n.v.n.v.r.r.r.r.z.u",
".y.y.y.y.y.y.y.y.y.y.y.A.y.y.y.y.y.y.y.y.y.y.y.y.y.y.y.y.y.y.y.y.y.y.y.y.y.B.y.y.y.y.y.y.y.y.y.y.y.y",
".C.C.C.C.C.C.A.A.C.C.A.A.A.A.A.A.A.D.B.B.C.C.C.C.A.C.A.A.C.C.C.E.A.A.A.A.A.A.A.A.A.B.B.F.A.C.C.C.G.C",
".A.A.A.A.A.A.A.A.A.A.A.A.A.A.A.A.A.H.A.B.C.C.C.B.C.A.A.A.A.A.A.A.A.A.A.A.A.A.A.A.A.A.A.H.A.C.C.C.B.B",
".A.A.A.A.A.A.A.A.A.A.A.A.A.A.A.A.A.H.A.A.C.C.C.B.A.A.A.A.A.A.A.A.A.A.A.A.A.A.A.A.A.A.A.H.A.A.C.C.B.B",
".A.A.A.A.A.A.B.A.A.A.B.A.A.A.C.A.A.H.A.A.B.B.B.B.A.A.A.A.A.A.A.A.C.C.B.B.A.B.A.A.A.A.A.H.B.B.B.B.C.B",
".r.r.r.r.r.r.r.r.r.r.r.r.r.v.n.v.r.I.r.r.r.r.r.r.r.r.r.r.r.r.r.r.n.v.n.v.v.r.r.r.r.r.r.I.r.r.r.r.n.v",
".r.r.r.r.n.v.n.x.r.r.r.r.n.v.n.n.r.J.v.r.r.r.r.r.r.v.n.v.r.r.r.r.n.v.n.v.r.p.r.r.r.r.r.K.v.r.r.r.v.n",
".C.L.M.M.M.B.B.E.B.B.N.B.B.E.j.O.O.P.O.B.E.B.E.B.C.L.E.C.M.M.M.B.B.B.E.B.B.B.B.N.I.Q.O.K.j.B.B.E.B.E",
".l.o.o.M.M.R.R.R.R.R.R.S.S.T.R.U.T.U.U.T.T.T.T.T.T.S.R.T.T.M.l.o.o.l.l.o.o.o.o.p.n.o.l.o.p.o.o.p.p.o",
".n.n.r.M.U.o.o.o.o.o.o.o.o.o.o.o.o.o.o.o.o.o.o.o.o.i.o.o.o.V.n.r.r.r.r.r.r.r.r.r.n.r.r.r.n.r.r.r.n.v",
".x.n.p.W.R.o.o.o.o.o.o.o.o.o.o.o.o.o.o.o.o.o.o.o.o.o.o.o.o.M.n.v.r.r.r.r.r.r.r.r.r.r.r.r.r.r.r.r.n.v",
".x.n.r.W.U.o.o.o.o.o.o.o.o.o.o.o.o.o.o.o.o.o.o.o.o.o.o.o.o.M.n.n.r.r.r.r.r.r.r.r.r.r.r.r.r.r.r.r.v.n",
".v.n.v.W.U.o.o.o.o.o.o.o.o.o.o.o.o.o.o.o.o.o.o.o.o.o.o.o.o.M.x.n.r.r.r.r.r.r.r.r.r.r.r.r.r.r.r.r.n.v",
".n.v.n.X.U.o.o.o.o.o.o.o.o.o.o.o.o.o.o.o.o.o.o.o.o.o.o.o.o.t.v.v.r.r.r.v.r.r.r.r.r.r.r.r.r.r.r.r.v.n",
".V.Q.P.Y.Y.D.Z.P.K.0.0.0.0.0.0.0.1.t.X.X.X.X.X.D.D.X.Y.Y.Y.2.X.X.3.D.3.3.K.O.Q.Q.Q.Q.Q.Q.Q.4.N.B.E.B",
".n.p.n.v.5.N.N.N.6.N.6.N.N.N.N.N.E.s.W.W.W.W.M.W.W.W.M.W.W.W.W.M.W.W.W.W.W.W.W.W.M.M.W.Q.o.p.l.o.o.o",
".v.v.v.v.v.v.r.v.v.v.v.v.v.v.v.v.v.Q.W.5.5.5.5.5.5.5.5.5.5.5.5.5.5.5.5.5.5.5.5.5.5.W.W.Q.v.v.v.v.v.v",
".v.v.v.v.v.v.v.v.v.v.v.v.v.v.v.v.v.L.5.5.5.5.5.5.5.5.5.5.5.5.5.5.5.5.5.5.5.5.5.5.5.5.5.0.v.v.v.v.v.v",
".v.v.v.v.v.v.v.v.v.v.v.v.v.v.v.v.v.L.5.5.5.5.5.5.5.5.5.5.5.5.5.5.5.5.5.5.5.5.5.5.5.5.5.7.x.v.v.v.v.v",
".v.v.v.v.v.v.v.v.v.v.v.v.v.v.v.v.v.G.5.5.5.5.5.5.5.5.5.5.5.5.5.5.5.5.5.5.5.5.5.5.5.5.5.4.v.v.v.v.v.v",
".v.x.v.v.r.x.v.v.v.v.v.x.v.x.v.v.n.X.5.5.5.5.5.5.5.5.5.5.5.5.5.5.5.5.5.5.5.5.5.5.5.5.5.Z.v.v.v.v.x.v",
".B.V.V.V.V.W.C.L.L.M.L.L.L.M.L.3.3.D.P.P.O.8.4.V.V.V.V.V.5.N.B.Q.8.O.8.8.Q.Q.Q.P.O.t.Y.Y.3.M.M.M.M.M",
".o.o.o.9.o.p.o.o.o.l.o.p.p.o.p.o.i.i.i.i.i.i.i.i.o.l.o.l.V.N.5.o.o.o.l.o.o.n.p.o.o.p.o.p.o.o.p.o.o.i",
".v.v.x.V.v.v.v.v.v.v.r.v.r.v.v.v.v.v.v.v.v.v.v.v.v.v.v.v.v.Q.Q.v.v.v.v.v.r.r.v.v.r.v.r.v.x.v.v.v.v.v",
".v.v.v.V.v.v.v.v.v.v.v.v.v.v.v.v.v.v.v.v.v.v.v.v.v.v.v.v.v.Q.v.v.v.v.v.v.v.v.v.v.v.v.v.v.v.v.v.v.v.v",
".v.v.v.C.v.v.v.v.v.v.v.v.v.v.v.v.v.v.v.v.v.v.v.v.v.v.v.v.v.4.v.v.v.v.v.v.v.v.v.v.v.v.v.v.v.v.v.v.v.v",
".v.v.x.j.v.v.v.v.v.v.v.v.v.v.v.v.v.v.v.v.v.v.v.v.v.v.v.v.v.7.v.v.v.v.v.v.v.v.v.v.v.v.v.v.v.v.v.v.x.x",
".v.v.v.s.v.v.v.v.v.v.v.v.v.v.v.v.v.v.v.v.v.v.v.v.v.v.v.x.v.s.v.v.v.v.v.v.v.v.v.v.v.v.v.x.v.v.v.v.x.x",
".v.v.x.s.v.v.u.x.v.x.x.v.x.x.v.v.v.v.v.x.v.v.v.v.v.v.x.x.v.s.u.x.v.v.v.v.v.v.x.x.v.x.x.x.x.x.v.v.n.u",
"#..X#.#..t.t#..t.3.t.t.x.t#..t.t#.#.#..t#.#.#.#.#..X#.#..t.t.t.t#.#.#.#.#..v.t.X.3.t.t#..t#.#..3.t.t",
".T##################.S.f##################################################.G############.S##########",
"####################.S.f##################################################.G########################",
"########.S##.S.S######.f.U############.S####.S##.S.S####.S####.S.S.S######.G##.S####.R##.T.R####.R.S",
"#a#a.a.aQtQtQt#aQtQt#a.f.a#a#a.a#a#aQt#aQtQt#aQtQt#a#a.a#aQtQtQtQt#a#a.a#a.GQt#aQtQtQtQt.a#aQtQtQtQt",
".n.x.u.u.u.u.u.u.u.u.u.G.u.u.u.u.u.u.u.u.u.u.u.u.u.u.u.u.u.u.u.u.n.x.u.u.u.G.u.u.u.u.u.u.u.u.u.u.u.u",
".x.x.v.x.u.u.u.u.u.u.u.y.u.u.u.u.u.u.u.u.u.u.u.u.u.u.u.u.u.u.u.u.x.x.u.u.u.y.u.u.u.u.u.u.u.u.u.u.u.u"};
